<svg width="23" height="16" viewBox="0 0 23 16" fill="none" xmlns="http://www.w3.org/2000/svg">
<path d="M20.9988 6.00036V12.0004M4.99882 8.50036V12.0004C4.99882 12.796 5.63096 13.5591 6.75618 14.1217C7.8814 14.6843 9.40752 15.0004 10.9988 15.0004C12.5901 15.0004 14.1162 14.6843 15.2415 14.1217C16.3667 13.5591 16.9988 12.796 16.9988 12.0004V8.50036M20.4188 6.92236C20.5978 6.84338 20.7498 6.71363 20.8558 6.54916C20.9617 6.3847 21.0172 6.19275 21.0151 5.99709C21.0131 5.80144 20.9537 5.61068 20.8444 5.44844C20.735 5.2862 20.5804 5.15961 20.3998 5.08436L11.8288 1.18036C11.5683 1.06151 11.2852 1 10.9988 1C10.7124 1 10.4294 1.06151 10.1688 1.18036L1.59882 5.08036C1.42079 5.15833 1.26934 5.28649 1.16299 5.44917C1.05664 5.61185 1 5.802 1 5.99636C1 6.19072 1.05664 6.38086 1.16299 6.54354C1.26934 6.70622 1.42079 6.83438 1.59882 6.91236L10.1688 10.8204C10.4294 10.9392 10.7124 11.0007 10.9988 11.0007C11.2852 11.0007 11.5683 10.9392 11.8288 10.8204L20.4188 6.92236Z" stroke="white" stroke-width="2" stroke-linecap="round" stroke-linejoin="round"/>
</svg>
