<svg width="22" height="20" viewBox="0 0 22 20" fill="none" xmlns="http://www.w3.org/2000/svg">
<path d="M11 14V19M15 12V19M19 8V19M21 1L12.354 9.646C12.3076 9.69256 12.2524 9.72951 12.1916 9.75471C12.1309 9.77992 12.0658 9.79289 12 9.79289C11.9342 9.79289 11.8691 9.77992 11.8084 9.75471C11.7476 9.72951 11.6924 9.69256 11.646 9.646L8.354 6.354C8.26024 6.26026 8.13308 6.20761 8.0005 6.20761C7.86792 6.20761 7.74076 6.26026 7.647 6.354L1 13M3 16V19M7 12V19" stroke="white" stroke-width="2" stroke-linecap="round" stroke-linejoin="round"/>
</svg>
